<svg width="54" height="326" viewBox="0 0 54 326" fill="none" xmlns="http://www.w3.org/2000/svg">
<rect x="0.5" y="0.5" width="53" height="325" rx="2.5" fill="white" stroke="#D5D5D5"/>
<rect x="5" y="68" width="43" height="38" fill="white"/>
<path d="M22.882 92V91.174C23.5447 90.6513 24.17 90.124 24.758 89.592C25.3553 89.0507 25.8827 88.5187 26.34 87.996C26.8067 87.4733 27.1707 86.96 27.432 86.456C27.7027 85.952 27.838 85.4667 27.838 85C27.838 84.6547 27.7773 84.3327 27.656 84.034C27.544 83.7353 27.3573 83.4973 27.096 83.32C26.8347 83.1333 26.48 83.04 26.032 83.04C25.6027 83.04 25.2433 83.138 24.954 83.334C24.6647 83.5207 24.4453 83.7727 24.296 84.09C24.156 84.4073 24.086 84.748 24.086 85.112H22.952C22.952 84.468 23.0873 83.9173 23.358 83.46C23.6287 82.9933 23.9973 82.6387 24.464 82.396C24.9307 82.1533 25.458 82.032 26.046 82.032C26.914 82.032 27.6233 82.2793 28.174 82.774C28.734 83.2593 29.014 83.9873 29.014 84.958C29.014 85.5367 28.8693 86.1107 28.58 86.68C28.2907 87.24 27.922 87.786 27.474 88.318C27.026 88.8407 26.5453 89.3307 26.032 89.788C25.528 90.2453 25.0567 90.656 24.618 91.02H29.35V92H22.882Z" fill="black"/>
<rect x="5" y="258" width="43" height="38" fill="white"/>
<path d="M23.848 282L27.74 273.208H22.364V272.2H28.944V273.082L25.094 282H23.848Z" fill="black"/>
<rect x="5" y="30" width="43" height="38" fill="white"/>
<path d="M26.002 54V45.516L24.42 45.866V45.054L26.394 44.2H27.192V54H26.002Z" fill="black"/>
<rect x="5" y="220" width="43" height="38" fill="white"/>
<path d="M26.564 244.168C25.8547 244.168 25.2573 244.037 24.772 243.776C24.2867 243.505 23.8947 243.146 23.596 242.698C23.3067 242.25 23.092 241.751 22.952 241.2C22.8213 240.64 22.756 240.071 22.756 239.492C22.756 238.409 22.9053 237.462 23.204 236.65C23.5027 235.829 23.932 235.189 24.492 234.732C25.0613 234.265 25.7473 234.032 26.55 234.032C27.166 234.032 27.6933 234.153 28.132 234.396C28.5707 234.639 28.916 234.965 29.168 235.376C29.4293 235.777 29.5927 236.225 29.658 236.72H28.566C28.4633 236.188 28.2347 235.777 27.88 235.488C27.5253 235.199 27.0773 235.054 26.536 235.054C25.7987 235.054 25.178 235.404 24.674 236.104C24.1793 236.795 23.9133 237.877 23.876 239.352C24.1 238.913 24.4547 238.535 24.94 238.218C25.4347 237.891 26.0273 237.728 26.718 237.728C27.278 237.728 27.8007 237.859 28.286 238.12C28.7807 238.381 29.182 238.75 29.49 239.226C29.798 239.693 29.952 240.243 29.952 240.878C29.952 241.429 29.8167 241.956 29.546 242.46C29.2753 242.964 28.8833 243.375 28.37 243.692C27.866 244.009 27.264 244.168 26.564 244.168ZM26.48 243.132C26.9187 243.132 27.3107 243.039 27.656 242.852C28.0013 242.665 28.272 242.409 28.468 242.082C28.664 241.746 28.762 241.363 28.762 240.934C28.762 240.271 28.5427 239.744 28.104 239.352C27.6747 238.951 27.1333 238.75 26.48 238.75C26.0413 238.75 25.6493 238.853 25.304 239.058C24.9587 239.254 24.6833 239.52 24.478 239.856C24.282 240.192 24.184 240.556 24.184 240.948C24.184 241.368 24.282 241.746 24.478 242.082C24.6833 242.409 24.9587 242.665 25.304 242.852C25.6493 243.039 26.0413 243.132 26.48 243.132Z" fill="black"/>
<rect x="5" y="182" width="43" height="38" fill="white"/>
<path d="M26.368 206.168C25.696 206.168 25.1127 206.047 24.618 205.804C24.1233 205.561 23.7267 205.23 23.428 204.81C23.1387 204.381 22.9613 203.895 22.896 203.354H24.044C24.156 203.895 24.4173 204.334 24.828 204.67C25.2387 204.997 25.7567 205.16 26.382 205.16C26.8487 205.16 27.25 205.053 27.586 204.838C27.922 204.614 28.1787 204.315 28.356 203.942C28.5427 203.569 28.636 203.153 28.636 202.696C28.636 201.968 28.4307 201.38 28.02 200.932C27.6093 200.484 27.0773 200.26 26.424 200.26C25.8827 200.26 25.4207 200.381 25.038 200.624C24.6553 200.867 24.3753 201.184 24.198 201.576H23.078L23.918 196.2H29.056V197.222H24.828L24.254 200.204C24.478 199.933 24.786 199.709 25.178 199.532C25.5793 199.355 26.0367 199.266 26.55 199.266C27.194 199.266 27.754 199.415 28.23 199.714C28.7153 200.013 29.0933 200.419 29.364 200.932C29.6347 201.445 29.77 202.029 29.77 202.682C29.77 203.307 29.6347 203.886 29.364 204.418C29.1027 204.95 28.7153 205.375 28.202 205.692C27.698 206.009 27.0867 206.168 26.368 206.168Z" fill="black"/>
<rect x="5" y="144" width="43" height="38" fill="white"/>
<rect x="5" y="106" width="43" height="38" fill="white"/>
<path d="M26.088 130.168C25.4627 130.168 24.898 130.056 24.394 129.832C23.89 129.599 23.484 129.253 23.176 128.796C22.8773 128.339 22.7187 127.769 22.7 127.088H23.89C23.8993 127.648 24.0953 128.133 24.478 128.544C24.8607 128.945 25.3973 129.146 26.088 129.146C26.7787 129.146 27.2967 128.955 27.642 128.572C27.9967 128.189 28.174 127.727 28.174 127.186C28.174 126.729 28.062 126.355 27.838 126.066C27.6233 125.777 27.3293 125.562 26.956 125.422C26.592 125.282 26.1907 125.212 25.752 125.212H25.024V124.218H25.752C26.3867 124.218 26.8813 124.073 27.236 123.784C27.6 123.495 27.782 123.089 27.782 122.566C27.782 122.127 27.6373 121.768 27.348 121.488C27.068 121.199 26.648 121.054 26.088 121.054C25.5467 121.054 25.1127 121.217 24.786 121.544C24.4593 121.861 24.2773 122.263 24.24 122.748H23.05C23.078 122.216 23.218 121.745 23.47 121.334C23.7313 120.923 24.086 120.606 24.534 120.382C24.982 120.149 25.5 120.032 26.088 120.032C26.7227 120.032 27.25 120.144 27.67 120.368C28.0993 120.592 28.4213 120.891 28.636 121.264C28.86 121.637 28.972 122.048 28.972 122.496C28.972 122.991 28.8367 123.443 28.566 123.854C28.2953 124.255 27.8893 124.526 27.348 124.666C27.9267 124.787 28.4073 125.063 28.79 125.492C29.1727 125.921 29.364 126.486 29.364 127.186C29.364 127.727 29.238 128.227 28.986 128.684C28.7433 129.132 28.3793 129.491 27.894 129.762C27.4087 130.033 26.8067 130.168 26.088 130.168Z" fill="black"/>
<rect x="9" y="145" width="35" height="35" rx="17.5" fill="#DAFFCC"/>
<path d="M27.432 168V166.18H22.602V164.752L27.194 158.2H29.224V164.626H30.512V166.18H29.224V168H27.432ZM24.52 164.626H27.544V160.174L24.52 164.626Z" fill="#34B505"/>
<rect x="9" y="9" width="35" height="21" rx="3" fill="#E4D2F9"/>
<path d="M15.888 24V15.6H16.896L21.372 22.332V15.6H22.38V24H21.372L16.896 17.268V24H15.888ZM26.8134 24.144C26.2534 24.144 25.7494 24.016 25.3014 23.76C24.8534 23.504 24.4974 23.144 24.2334 22.68C23.9774 22.208 23.8494 21.656 23.8494 21.024C23.8494 20.392 23.9814 19.844 24.2454 19.38C24.5094 18.908 24.8654 18.544 25.3134 18.288C25.7694 18.032 26.2774 17.904 26.8374 17.904C27.3974 17.904 27.9014 18.032 28.3494 18.288C28.7974 18.544 29.1494 18.908 29.4054 19.38C29.6694 19.844 29.8014 20.392 29.8014 21.024C29.8014 21.656 29.6694 22.208 29.4054 22.68C29.1414 23.144 28.7814 23.504 28.3254 23.76C27.8774 24.016 27.3734 24.144 26.8134 24.144ZM26.8134 23.28C27.1574 23.28 27.4774 23.196 27.7734 23.028C28.0694 22.86 28.3094 22.608 28.4934 22.272C28.6774 21.936 28.7694 21.52 28.7694 21.024C28.7694 20.528 28.6774 20.112 28.4934 19.776C28.3174 19.44 28.0814 19.188 27.7854 19.02C27.4894 18.852 27.1734 18.768 26.8374 18.768C26.4934 18.768 26.1734 18.852 25.8774 19.02C25.5814 19.188 25.3414 19.44 25.1574 19.776C24.9734 20.112 24.8814 20.528 24.8814 21.024C24.8814 21.52 24.9734 21.936 25.1574 22.272C25.3414 22.608 25.5774 22.86 25.8654 23.028C26.1614 23.196 26.4774 23.28 26.8134 23.28ZM32.6143 24L30.3583 18.048H31.4143L33.2023 23.028L35.0023 18.048H36.0343L33.7783 24H32.6143Z" fill="#5E16B6"/>
<rect x="9" y="296" width="35" height="21" rx="3" fill="#E4D2F9"/>
<path d="M13.756 311V310.292C14.324 309.844 14.86 309.392 15.364 308.936C15.876 308.472 16.328 308.016 16.72 307.568C17.12 307.12 17.432 306.68 17.656 306.248C17.888 305.816 18.004 305.4 18.004 305C18.004 304.704 17.952 304.428 17.848 304.172C17.752 303.916 17.592 303.712 17.368 303.56C17.144 303.4 16.84 303.32 16.456 303.32C16.088 303.32 15.78 303.404 15.532 303.572C15.284 303.732 15.096 303.948 14.968 304.22C14.848 304.492 14.788 304.784 14.788 305.096H13.816C13.816 304.544 13.932 304.072 14.164 303.68C14.396 303.28 14.712 302.976 15.112 302.768C15.512 302.56 15.964 302.456 16.468 302.456C17.212 302.456 17.82 302.668 18.292 303.092C18.772 303.508 19.012 304.132 19.012 304.964C19.012 305.46 18.888 305.952 18.64 306.44C18.392 306.92 18.076 307.388 17.692 307.844C17.308 308.292 16.896 308.712 16.456 309.104C16.024 309.496 15.62 309.848 15.244 310.16H19.3V311H13.756ZM23.914 311.144C23.17 311.144 22.526 310.964 21.982 310.604C21.446 310.236 21.034 309.728 20.746 309.08C20.458 308.424 20.314 307.664 20.314 306.8C20.314 305.936 20.458 305.18 20.746 304.532C21.034 303.876 21.446 303.368 21.982 303.008C22.526 302.64 23.17 302.456 23.914 302.456C24.658 302.456 25.298 302.64 25.834 303.008C26.37 303.368 26.782 303.876 27.07 304.532C27.358 305.18 27.502 305.936 27.502 306.8C27.502 307.664 27.358 308.424 27.07 309.08C26.782 309.728 26.37 310.236 25.834 310.604C25.298 310.964 24.658 311.144 23.914 311.144ZM23.914 310.256C24.402 310.256 24.838 310.12 25.222 309.848C25.614 309.568 25.918 309.172 26.134 308.66C26.358 308.14 26.47 307.52 26.47 306.8C26.47 306.08 26.358 305.464 26.134 304.952C25.918 304.44 25.614 304.048 25.222 303.776C24.838 303.496 24.402 303.356 23.914 303.356C23.418 303.356 22.978 303.496 22.594 303.776C22.21 304.048 21.906 304.44 21.682 304.952C21.458 305.464 21.346 306.08 21.346 306.8C21.346 307.52 21.458 308.14 21.682 308.66C21.906 309.172 22.21 309.568 22.594 309.848C22.978 310.12 23.418 310.256 23.914 310.256ZM28.7091 311V310.292C29.2771 309.844 29.8131 309.392 30.3171 308.936C30.8291 308.472 31.2811 308.016 31.6731 307.568C32.0731 307.12 32.3851 306.68 32.6091 306.248C32.8411 305.816 32.9571 305.4 32.9571 305C32.9571 304.704 32.9051 304.428 32.8011 304.172C32.7051 303.916 32.5451 303.712 32.3211 303.56C32.0971 303.4 31.7931 303.32 31.4091 303.32C31.0411 303.32 30.7331 303.404 30.4851 303.572C30.2371 303.732 30.0491 303.948 29.9211 304.22C29.8011 304.492 29.7411 304.784 29.7411 305.096H28.7691C28.7691 304.544 28.8851 304.072 29.1171 303.68C29.3491 303.28 29.6651 302.976 30.0651 302.768C30.4651 302.56 30.9171 302.456 31.4211 302.456C32.1651 302.456 32.7731 302.668 33.2451 303.092C33.7251 303.508 33.9651 304.132 33.9651 304.964C33.9651 305.46 33.8411 305.952 33.5931 306.44C33.3451 306.92 33.0291 307.388 32.6451 307.844C32.2611 308.292 31.8491 308.712 31.4091 309.104C30.9771 309.496 30.5731 309.848 30.1971 310.16H34.2531V311H28.7091ZM36.5363 311V303.728L35.1803 304.028V303.332L36.8723 302.6H37.5563V311H36.5363Z" fill="#5E16B6"/>
<path d="M52 88L52 32L54 32L54 88L52 88Z" fill="#D5D5D5"/>
</svg>
